<svg xmlns="http://www.w3.org/2000/svg" width="68" height="68" viewBox="0 0 68 68"><defs><style>.a{fill:#252525;}.b{fill:#ebebeb;}.c{fill:none;}</style></defs><g transform="translate(-140 -220)"><circle class="a" cx="34" cy="34" r="34" transform="translate(140 220)"/><g transform="translate(-222 -8293)"><g transform="translate(378.182 8535.328)"><path class="b" d="M409.135,8574.1h-4.485a1.939,1.939,0,0,1-1.937-1.937v-2.523h-4.53v2.523a1.94,1.94,0,0,1-1.937,1.938h-1.78a4.67,4.67,0,0,1-4.665-4.665v-7.987a10.581,10.581,0,0,1,10.568-10.456h6.454a7.816,7.816,0,0,1,7.807,7.807v2.879h-2.5v-2.852a5.319,5.319,0,0,0-5.307-5.334h-6.454a8.077,8.077,0,0,0-8.069,8.068v7.875a2.168,2.168,0,0,0,2.165,2.165h1.217v-2.524a1.939,1.939,0,0,1,1.937-1.937h5.656a1.939,1.939,0,0,1,1.937,1.937v2.524h3.358v-2.84a1.939,1.939,0,0,1,1.937-1.937H414.1a4.636,4.636,0,0,0,4.631-4.631v-3.816h2.5v3.816a7.139,7.139,0,0,1-7.131,7.131h-3.03v2.839A1.939,1.939,0,0,1,409.135,8574.1Z" transform="translate(-386.233 -8550.988)"/><circle class="b" cx="1.25" cy="1.25" r="1.25" transform="translate(22.066 6.655)"/><path class="b" d="M423.6,8560.2a1.024,1.024,0,0,0-1.271-1,4.875,4.875,0,0,0,0,9.413,1.024,1.024,0,0,0,1.271-1Z" transform="translate(-403.107 -8555.759)"/><path class="b" d="M382.487,8572.488a1.249,1.249,0,0,1-1.25-1.25,5.348,5.348,0,0,1,5.342-5.342,1.25,1.25,0,0,1,0,2.5,2.846,2.846,0,0,0-2.842,2.842A1.25,1.25,0,0,1,382.487,8572.488Z" transform="translate(-381.237 -8559.685)"/><path class="b" d="M446.3,8574.955a2.919,2.919,0,0,1-2.917-2.917h2.5a.417.417,0,1,0,.833,0v-3.129h2.5v3.129A2.919,2.919,0,0,1,446.3,8574.955Z" transform="translate(-417.491 -8561.441)"/><path class="b" d="M457.158,8565.308h-2.5a.385.385,0,1,0-.771,0h-2.5a2.885,2.885,0,1,1,5.771,0Z" transform="translate(-422.158 -8557.658)"/></g><rect class="c" width="40" height="40" transform="translate(376 8527)"/></g></g></svg>