<svg xmlns="http://www.w3.org/2000/svg" width="68" height="68" viewBox="0 0 68 68"><defs><style>.a{fill:#f37920;}.b{fill:none;}.c{fill:#ebebeb;}</style></defs><g transform="translate(-48 -124)"><circle class="a" cx="34" cy="34" r="34" transform="translate(48 124)"/><g transform="translate(-4727.795 -12205.809)"><rect class="b" width="40" height="40" transform="translate(4789.795 12343.809)"/><path class="c" d="M4830.937,12367.529a1.04,1.04,0,0,1,.288.641,1.03,1.03,0,0,1-.213.556.581.581,0,0,1-.153.149l-11.2-.02-1.4,0-.733,1.2-7.506,12.266a.337.337,0,0,1-.272.151.324.324,0,0,1-.223-.094.343.343,0,0,1-.033-.038.324.324,0,0,1-.043-.285l3.3-9.923,1.093-3.284-3.46-.006-5.749-.01-1.212,0-.752.951-.987,1.248.559-2.352.137-.574-.135-.574-.55-2.348,1.007,1.283.75.955,1.213,0,5.734.01,3.46.007-1.082-3.287-3.279-9.971a.328.328,0,0,1,.045-.287.324.324,0,0,1,.256-.131.338.338,0,0,1,.229.1.262.262,0,0,1,.042.053l7.484,12.33.729,1.2,1.4,0,11.177.02a.573.573,0,0,1,.077.064m1.768-1.768a2.551,2.551,0,0,0-1.8-.8l-11.222-.02-7.485-12.33a2.788,2.788,0,0,0-.412-.523,2.816,2.816,0,0,0-4.672,2.865l3.279,9.972-5.734-.01-2.262-2.884a2.1,2.1,0,0,0-.229-.272,1.939,1.939,0,0,0-2.944.194,2.294,2.294,0,0,0-.4,1.953l.98,4.186-.989,4.158a2.31,2.31,0,0,0,.391,1.979,2.08,2.08,0,0,0,.18.2,1.945,1.945,0,0,0,1.378.58,1.987,1.987,0,0,0,1.615-.851l2.246-2.839,5.748.01-3.3,9.924a2.822,2.822,0,0,0,.387,2.534,2.733,2.733,0,0,0,.289.341l0,0a2.818,2.818,0,0,0,4.4-.52l7.506-12.266,11.244.02a2.67,2.67,0,0,0,2.109-1.143,3.337,3.337,0,0,0-.3-4.471Z" transform="translate(-5.218 -4.347)"/></g></g></svg>