<svg xmlns="http://www.w3.org/2000/svg" width="68" height="68" viewBox="0 0 68 68"><defs><style>.a{fill:#252525;}.b{fill:none;}.c{fill:#ebebeb;}</style></defs><g transform="translate(-140 -220)"><circle class="a" cx="34" cy="34" r="34" transform="translate(140 220)"/><g transform="translate(-1182 -6181)"><rect class="b" width="40" height="40" transform="translate(1336 6415)"/><g transform="translate(1338.622 6422.26)"><path class="c" d="M1361.8,6459.718a1.25,1.25,0,0,1-.884-.365,11.087,11.087,0,0,1,0-15.678,1.25,1.25,0,0,1,1.768,1.768,8.585,8.585,0,0,0,0,12.141,1.25,1.25,0,0,1-.884,2.134Z" transform="translate(-1351.261 -6438.773)"/><path class="c" d="M1399.213,6459.718a1.25,1.25,0,0,1-.884-2.134,8.585,8.585,0,0,0,0-12.141,1.25,1.25,0,0,1,1.768-1.768,11.087,11.087,0,0,1,0,15.678A1.25,1.25,0,0,1,1399.213,6459.718Z" transform="translate(-1374.767 -6438.773)"/><path class="c" d="M1348.293,6457.9a1.245,1.245,0,0,1-.884-.366,17.519,17.519,0,0,1,0-24.748,1.25,1.25,0,0,1,1.768,1.768,15.017,15.017,0,0,0,0,21.213,1.25,1.25,0,0,1-.884,2.134Z" transform="translate(-1342.292 -6432.423)"/><path class="c" d="M1410.1,6457.9a1.25,1.25,0,0,1-.884-2.134,15.017,15.017,0,0,0,0-21.213,1.25,1.25,0,0,1,1.768-1.768,17.519,17.519,0,0,1,0,24.748A1.247,1.247,0,0,1,1410.1,6457.9Z" transform="translate(-1381.117 -6432.423)"/><circle class="c" cx="3.881" cy="3.881" r="3.881" transform="translate(13.616 8.86)"/></g></g></g></svg>